<svg width="465" height="218" viewBox="0 0 465 218" fill="none" xmlns="http://www.w3.org/2000/svg">
<path fill-rule="evenodd" clip-rule="evenodd" d="M66.3573 72.3192C65.8213 72.1842 65.2546 72.2486 64.7625 72.5002C64.2704 72.7518 63.8864 73.1737 63.6821 73.6872L58.9802 85.4419L47.2205 90.1539C46.8962 90.2839 46.6061 90.4868 46.3726 90.7468C46.1392 91.0068 45.9686 91.317 45.8741 91.6534C45.7796 91.9898 45.7637 92.3434 45.8276 92.687C45.8915 93.0305 46.0335 93.3547 46.2426 93.6347L53.189 102.902L48.3858 122.114C48.2544 122.644 48.317 123.203 48.5624 123.69C48.8078 124.177 49.2198 124.56 49.7234 124.769L64.28 130.839L71.5 141.667C71.768 142.069 72.1569 142.375 72.6104 142.542C73.0639 142.708 73.5586 142.727 74.0232 142.594L91.7565 137.527C91.7871 137.518 91.8175 137.508 91.8477 137.497L107.048 132.43C107.422 132.305 107.757 132.086 108.021 131.793C108.284 131.5 108.468 131.143 108.552 130.758L113.619 107.958C113.714 107.531 113.683 107.085 113.532 106.674C113.38 106.264 113.113 105.906 112.763 105.643L103.542 98.7267V87.2C103.541 86.7769 103.423 86.3623 103.2 86.0025C102.977 85.6428 102.659 85.3522 102.28 85.1632L87.08 77.5632C86.9315 77.4872 86.7752 77.4278 86.6138 77.3859L66.3472 72.3192H66.3573ZM100.922 102.461L107.727 107.563L94.7408 118.38C94.4142 118.652 94.1703 119.01 94.0365 119.414L89.8818 131.863L82.2058 127.065C81.9517 126.906 81.6687 126.799 81.3732 126.749C81.0776 126.7 80.7752 126.709 80.4833 126.777C80.1914 126.844 79.9156 126.969 79.6717 127.143C79.4278 127.317 79.2206 127.537 79.062 127.792C78.9033 128.046 78.7962 128.329 78.7469 128.624C78.6975 128.92 78.7069 129.222 78.7744 129.514C78.8419 129.806 78.9662 130.082 79.1403 130.326C79.3144 130.57 79.5349 130.777 79.789 130.935L85.5752 134.548L74.3778 137.75L67.6898 127.733C67.4414 127.361 67.089 127.071 66.6765 126.897L53.2853 121.319L57.445 104.68H68.3333C68.6327 104.68 68.9292 104.621 69.2058 104.506C69.4824 104.392 69.7338 104.224 69.9455 104.012C70.1572 103.8 70.3252 103.549 70.4397 103.273C70.5543 102.996 70.6133 102.699 70.6133 102.4C70.6133 102.101 70.5543 101.804 70.4397 101.527C70.3252 101.251 70.1572 101 69.9455 100.788C69.7338 100.576 69.4824 100.408 69.2058 100.294C68.9292 100.179 68.6327 100.12 68.3333 100.12H56.8066L51.6741 93.28L60.8042 89.6269L75.2138 94.4301C75.6559 94.5767 76.1323 94.5844 76.5788 94.4522C77.0254 94.3199 77.4207 94.0541 77.7117 93.6904L86.6949 82.4627L98.9866 88.6085V98.3213L87.7538 102.815C87.4457 102.939 87.1682 103.128 86.9407 103.369C86.7132 103.611 86.5411 103.899 86.4365 104.214L83.9032 111.814C83.8066 112.098 83.7674 112.399 83.7876 112.699C83.8077 112.999 83.887 113.292 84.0208 113.561C84.1546 113.83 84.3403 114.07 84.5672 114.267C84.7941 114.464 85.0577 114.615 85.3429 114.71C85.6281 114.804 85.9292 114.842 86.229 114.82C86.5287 114.798 86.8211 114.717 87.0895 114.582C87.3578 114.446 87.5967 114.259 87.7924 114.031C87.9882 113.803 88.1369 113.539 88.2301 113.253L90.424 106.656L100.917 102.461H100.922ZM82.069 80.9477L75.148 89.6016L63.748 85.8016L67.1781 77.2288L82.069 80.9477ZM94.7357 131.731L104.388 128.514L107.727 113.496L98.1557 121.471L94.7357 131.731Z" fill="white"/>
<path d="M127.887 143C127.641 143 127.45 142.936 127.313 142.809C127.185 142.672 127.122 142.48 127.122 142.234V134.123C127.122 133.877 127.185 133.69 127.313 133.563C127.45 133.426 127.641 133.357 127.887 133.357H132.88C133.071 133.357 133.217 133.408 133.317 133.508C133.418 133.599 133.468 133.736 133.468 133.918C133.468 134.11 133.418 134.256 133.317 134.356C133.217 134.456 133.071 134.506 132.88 134.506H128.489V137.529H132.579C132.779 137.529 132.925 137.579 133.016 137.68C133.117 137.78 133.167 137.921 133.167 138.104C133.167 138.295 133.117 138.441 133.016 138.541C132.925 138.632 132.779 138.678 132.579 138.678H128.489V141.851H132.88C133.071 141.851 133.217 141.901 133.317 142.002C133.418 142.102 133.468 142.243 133.468 142.426C133.468 142.617 133.418 142.763 133.317 142.863C133.217 142.954 133.071 143 132.88 143H127.887ZM151.741 143.096C151.513 143.096 151.335 143.032 151.207 142.904C151.089 142.777 151.029 142.594 151.029 142.357V138.021L151.344 138.924L147.966 134.233C147.865 134.096 147.82 133.955 147.829 133.809C147.838 133.654 147.897 133.526 148.007 133.426C148.125 133.316 148.28 133.262 148.472 133.262C148.618 133.262 148.75 133.298 148.868 133.371C148.996 133.444 149.115 133.558 149.224 133.713L151.932 137.474H151.604L154.312 133.713C154.43 133.549 154.544 133.435 154.654 133.371C154.763 133.298 154.9 133.262 155.064 133.262C155.256 133.262 155.402 133.312 155.502 133.412C155.611 133.503 155.666 133.626 155.666 133.781C155.675 133.927 155.62 134.082 155.502 134.246L152.151 138.924L152.438 138.021V142.357C152.438 142.85 152.206 143.096 151.741 143.096ZM171.721 143C171.475 143 171.284 142.936 171.147 142.809C171.019 142.672 170.955 142.48 170.955 142.234V134.123C170.955 133.877 171.019 133.69 171.147 133.563C171.284 133.426 171.475 133.357 171.721 133.357H176.714C176.905 133.357 177.051 133.408 177.151 133.508C177.252 133.599 177.302 133.736 177.302 133.918C177.302 134.11 177.252 134.256 177.151 134.356C177.051 134.456 176.905 134.506 176.714 134.506H172.323V137.529H176.413C176.613 137.529 176.759 137.579 176.85 137.68C176.951 137.78 177.001 137.921 177.001 138.104C177.001 138.295 176.951 138.441 176.85 138.541C176.759 138.632 176.613 138.678 176.413 138.678H172.323V141.851H176.714C176.905 141.851 177.051 141.901 177.151 142.002C177.252 142.102 177.302 142.243 177.302 142.426C177.302 142.617 177.252 142.763 177.151 142.863C177.051 142.954 176.905 143 176.714 143H171.721ZM210.545 143.096C210.317 143.096 210.139 143.032 210.012 142.904C209.893 142.777 209.834 142.599 209.834 142.371V133.987C209.834 133.75 209.893 133.572 210.012 133.453C210.139 133.326 210.317 133.262 210.545 133.262C210.773 133.262 210.946 133.326 211.065 133.453C211.192 133.572 211.256 133.75 211.256 133.987V142.371C211.256 142.599 211.197 142.777 211.078 142.904C210.96 143.032 210.782 143.096 210.545 143.096ZM227.773 143.096C227.563 143.096 227.399 143.036 227.28 142.918C227.162 142.799 227.103 142.631 227.103 142.412V133.973C227.103 133.745 227.157 133.572 227.267 133.453C227.385 133.326 227.54 133.262 227.732 133.262C227.896 133.262 228.019 133.294 228.101 133.357C228.192 133.412 228.297 133.517 228.416 133.672L234.051 141.099H233.709V133.932C233.709 133.722 233.763 133.558 233.873 133.44C233.991 133.321 234.156 133.262 234.365 133.262C234.584 133.262 234.748 133.321 234.858 133.44C234.967 133.558 235.022 133.722 235.022 133.932V142.426C235.022 142.635 234.967 142.799 234.858 142.918C234.757 143.036 234.621 143.096 234.447 143.096C234.283 143.096 234.146 143.064 234.037 143C233.937 142.936 233.827 142.827 233.709 142.672L228.101 135.259H228.416V142.412C228.416 142.631 228.361 142.799 228.251 142.918C228.142 143.036 227.982 143.096 227.773 143.096ZM271.155 143.096C270.927 143.096 270.749 143.032 270.622 142.904C270.503 142.777 270.444 142.599 270.444 142.371V134.547H267.544C267.353 134.547 267.202 134.497 267.093 134.397C266.983 134.288 266.929 134.137 266.929 133.946C266.929 133.754 266.983 133.608 267.093 133.508C267.202 133.408 267.353 133.357 267.544 133.357H274.752C274.953 133.357 275.108 133.408 275.217 133.508C275.327 133.608 275.381 133.754 275.381 133.946C275.381 134.137 275.327 134.288 275.217 134.397C275.108 134.497 274.953 134.547 274.752 134.547H271.853V142.371C271.853 142.599 271.793 142.777 271.675 142.904C271.565 143.032 271.392 143.096 271.155 143.096ZM290.773 143.096C290.545 143.096 290.367 143.032 290.24 142.904C290.121 142.777 290.062 142.599 290.062 142.371V133.987C290.062 133.75 290.121 133.572 290.24 133.453C290.367 133.326 290.545 133.262 290.773 133.262C291.001 133.262 291.174 133.326 291.293 133.453C291.42 133.572 291.484 133.75 291.484 133.987V137.515H296.887V133.987C296.887 133.75 296.946 133.572 297.065 133.453C297.192 133.326 297.37 133.262 297.598 133.262C297.826 133.262 297.999 133.326 298.118 133.453C298.236 133.572 298.295 133.75 298.295 133.987V142.371C298.295 142.599 298.236 142.777 298.118 142.904C297.999 143.032 297.826 143.096 297.598 143.096C297.37 143.096 297.192 143.032 297.065 142.904C296.946 142.777 296.887 142.599 296.887 142.371V138.705H291.484V142.371C291.484 142.599 291.425 142.777 291.306 142.904C291.188 143.032 291.01 143.096 290.773 143.096ZM314.922 143C314.675 143 314.484 142.936 314.347 142.809C314.22 142.672 314.156 142.48 314.156 142.234V134.123C314.156 133.877 314.22 133.69 314.347 133.563C314.484 133.426 314.675 133.357 314.922 133.357H319.914C320.105 133.357 320.251 133.408 320.352 133.508C320.452 133.599 320.502 133.736 320.502 133.918C320.502 134.11 320.452 134.256 320.352 134.356C320.251 134.456 320.105 134.506 319.914 134.506H315.523V137.529H319.613C319.814 137.529 319.96 137.579 320.051 137.68C320.151 137.78 320.201 137.921 320.201 138.104C320.201 138.295 320.151 138.441 320.051 138.541C319.96 138.632 319.814 138.678 319.613 138.678H315.523V141.851H319.914C320.105 141.851 320.251 141.901 320.352 142.002C320.452 142.102 320.502 142.243 320.502 142.426C320.502 142.617 320.452 142.763 320.352 142.863C320.251 142.954 320.105 143 319.914 143H314.922ZM356.248 143.123C355.829 143.123 355.419 143.091 355.017 143.027C354.616 142.964 354.238 142.868 353.882 142.74C353.527 142.603 353.207 142.439 352.925 142.248C352.788 142.147 352.692 142.033 352.638 141.906C352.592 141.778 352.578 141.655 352.597 141.537C352.624 141.409 352.679 141.299 352.761 141.208C352.843 141.117 352.943 141.062 353.062 141.044C353.18 141.017 353.312 141.053 353.458 141.154C353.869 141.418 354.302 141.614 354.758 141.742C355.213 141.86 355.71 141.919 356.248 141.919C357.023 141.919 357.593 141.783 357.958 141.509C358.332 141.227 358.519 140.862 358.519 140.415C358.519 140.05 358.387 139.763 358.122 139.553C357.858 139.334 357.416 139.161 356.795 139.034L355.332 138.733C354.466 138.55 353.818 138.249 353.39 137.83C352.97 137.411 352.761 136.845 352.761 136.134C352.761 135.705 352.847 135.313 353.021 134.958C353.203 134.602 353.454 134.297 353.773 134.041C354.092 133.777 354.475 133.576 354.922 133.44C355.368 133.303 355.856 133.234 356.385 133.234C356.95 133.234 357.479 133.307 357.972 133.453C358.473 133.599 358.92 133.822 359.312 134.123C359.431 134.205 359.508 134.31 359.545 134.438C359.59 134.557 359.599 134.675 359.572 134.794C359.554 134.912 359.504 135.012 359.422 135.094C359.339 135.177 359.235 135.227 359.107 135.245C358.979 135.254 358.838 135.208 358.683 135.108C358.327 134.871 357.963 134.702 357.589 134.602C357.224 134.493 356.818 134.438 356.371 134.438C355.925 134.438 355.533 134.506 355.195 134.643C354.867 134.78 354.612 134.971 354.429 135.218C354.256 135.464 354.169 135.756 354.169 136.093C354.169 136.476 354.293 136.781 354.539 137.009C354.785 137.237 355.195 137.411 355.77 137.529L357.219 137.83C358.131 138.021 358.811 138.318 359.257 138.719C359.704 139.12 359.928 139.654 359.928 140.319C359.928 140.748 359.841 141.135 359.668 141.482C359.494 141.819 359.248 142.111 358.929 142.357C358.61 142.603 358.222 142.795 357.767 142.932C357.32 143.059 356.814 143.123 356.248 143.123ZM375.863 143.096C375.635 143.096 375.457 143.032 375.329 142.904C375.211 142.777 375.151 142.599 375.151 142.371V133.973C375.151 133.736 375.211 133.558 375.329 133.44C375.457 133.321 375.635 133.262 375.863 133.262C376.091 133.262 376.264 133.321 376.382 133.44C376.51 133.558 376.574 133.736 376.574 133.973V137.693H376.601L380.8 133.631C380.937 133.503 381.065 133.412 381.183 133.357C381.311 133.294 381.452 133.262 381.607 133.262C381.817 133.262 381.967 133.316 382.059 133.426C382.159 133.526 382.2 133.649 382.182 133.795C382.163 133.941 382.086 134.082 381.949 134.219L377.586 138.377L377.613 137.68L382.154 142.056C382.318 142.211 382.405 142.371 382.414 142.535C382.423 142.699 382.373 142.836 382.264 142.945C382.154 143.046 381.999 143.096 381.799 143.096C381.616 143.096 381.47 143.059 381.361 142.986C381.252 142.913 381.124 142.809 380.978 142.672L376.601 138.5H376.574V142.371C376.574 142.599 376.515 142.777 376.396 142.904C376.278 143.032 376.1 143.096 375.863 143.096ZM400.185 143.096C399.957 143.096 399.779 143.032 399.651 142.904C399.533 142.777 399.473 142.594 399.473 142.357V138.021L399.788 138.924L396.41 134.233C396.309 134.096 396.264 133.955 396.273 133.809C396.282 133.654 396.341 133.526 396.451 133.426C396.569 133.316 396.724 133.262 396.916 133.262C397.062 133.262 397.194 133.298 397.312 133.371C397.44 133.444 397.559 133.558 397.668 133.713L400.376 137.474H400.048L402.756 133.713C402.874 133.549 402.988 133.435 403.098 133.371C403.207 133.298 403.344 133.262 403.508 133.262C403.7 133.262 403.846 133.312 403.946 133.412C404.055 133.503 404.11 133.626 404.11 133.781C404.119 133.927 404.064 134.082 403.946 134.246L400.595 138.924L400.882 138.021V142.357C400.882 142.85 400.65 143.096 400.185 143.096Z" fill="white"/>
<path d="M136.25 110.033C137.573 110.033 138.795 109.763 139.917 109.222C141.039 108.681 141.96 107.939 142.682 106.998C143.403 106.036 143.814 104.944 143.914 103.722H149.203C149.103 105.645 148.452 107.438 147.25 109.101C146.068 110.744 144.515 112.077 142.591 113.098C140.668 114.1 138.554 114.601 136.25 114.601C133.806 114.601 131.672 114.17 129.849 113.309C128.046 112.447 126.543 111.265 125.341 109.763C124.159 108.26 123.267 106.537 122.666 104.593C122.085 102.63 121.795 100.556 121.795 98.3725V97.1103C121.795 94.9265 122.085 92.8629 122.666 90.9195C123.267 88.956 124.159 87.223 125.341 85.7203C126.543 84.2177 128.046 83.0356 129.849 82.1741C131.672 81.3126 133.806 80.8818 136.25 80.8818C138.795 80.8818 141.019 81.4027 142.922 82.4446C144.825 83.4664 146.318 84.8688 147.4 86.652C148.502 88.4151 149.103 90.4186 149.203 92.6625H143.914C143.814 91.3202 143.433 90.108 142.772 89.0261C142.131 87.9442 141.249 87.0827 140.127 86.4416C139.025 85.7804 137.733 85.4498 136.25 85.4498C134.547 85.4498 133.115 85.7904 131.953 86.4716C130.811 87.1328 129.899 88.0344 129.218 89.1764C128.557 90.2984 128.076 91.5506 127.775 92.933C127.495 94.2954 127.355 95.6878 127.355 97.1103V98.3725C127.355 99.795 127.495 101.198 127.775 102.58C128.056 103.962 128.527 105.215 129.188 106.337C129.869 107.459 130.781 108.36 131.923 109.041C133.085 109.702 134.527 110.033 136.25 110.033ZM161.495 67.8389V114H155.905V67.8389H161.495ZM183.914 114.601C181.65 114.601 179.596 114.22 177.753 113.459C175.93 112.678 174.357 111.586 173.035 110.183C171.733 108.781 170.731 107.118 170.03 105.195C169.328 103.271 168.978 101.167 168.978 98.8834V97.6212C168.978 94.9766 169.368 92.6224 170.15 90.5588C170.931 88.4752 171.993 86.7121 173.335 85.2695C174.678 83.827 176.2 82.7351 177.903 81.9938C179.606 81.2525 181.37 80.8818 183.193 80.8818C185.517 80.8818 187.52 81.2825 189.203 82.0839C190.906 82.8853 192.299 84.0073 193.381 85.4498C194.463 86.8723 195.264 88.5553 195.785 90.4987C196.306 92.4221 196.566 94.5258 196.566 96.8098V99.3042H172.284V94.7662H191.007V94.3455C190.926 92.9029 190.626 91.5005 190.105 90.1381C189.604 88.7757 188.803 87.6537 187.701 86.7722C186.599 85.8906 185.096 85.4498 183.193 85.4498C181.931 85.4498 180.769 85.7203 179.707 86.2613C178.645 86.7822 177.733 87.5636 176.972 88.6054C176.211 89.6472 175.619 90.9195 175.199 92.4221C174.778 93.9247 174.568 95.6578 174.568 97.6212V98.8834C174.568 100.426 174.778 101.879 175.199 103.241C175.64 104.583 176.271 105.766 177.092 106.787C177.934 107.809 178.945 108.611 180.127 109.192C181.33 109.773 182.692 110.063 184.215 110.063C186.178 110.063 187.841 109.662 189.203 108.861C190.566 108.06 191.758 106.988 192.78 105.645L196.146 108.32C195.444 109.382 194.553 110.394 193.471 111.355C192.389 112.317 191.057 113.098 189.474 113.699C187.911 114.301 186.058 114.601 183.914 114.601ZM222.231 108.44V91.7008C222.231 90.4186 221.971 89.3066 221.45 88.365C220.949 87.4033 220.188 86.662 219.166 86.1411C218.144 85.6201 216.882 85.3597 215.379 85.3597C213.977 85.3597 212.745 85.6001 211.683 86.081C210.641 86.5618 209.82 87.1929 209.218 87.9743C208.637 88.7556 208.347 89.5971 208.347 90.4987H202.787C202.787 89.3367 203.088 88.1846 203.689 87.0426C204.29 85.9006 205.151 84.8688 206.273 83.9472C207.415 83.0055 208.778 82.2642 210.361 81.7233C211.963 81.1623 213.746 80.8818 215.71 80.8818C218.074 80.8818 220.158 81.2825 221.961 82.0839C223.784 82.8853 225.207 84.0975 226.228 85.7203C227.27 87.3231 227.791 89.3367 227.791 91.7609V106.908C227.791 107.989 227.881 109.141 228.062 110.364C228.262 111.586 228.552 112.638 228.933 113.519V114H223.133C222.852 113.359 222.632 112.507 222.472 111.446C222.311 110.364 222.231 109.362 222.231 108.44ZM223.193 94.2854L223.253 98.1922H217.633C216.05 98.1922 214.638 98.3225 213.396 98.5829C212.154 98.8233 211.112 99.194 210.27 99.6949C209.429 100.196 208.788 100.827 208.347 101.588C207.906 102.329 207.686 103.201 207.686 104.203C207.686 105.225 207.916 106.156 208.377 106.998C208.838 107.839 209.529 108.51 210.451 109.011C211.392 109.492 212.544 109.733 213.907 109.733C215.61 109.733 217.112 109.372 218.415 108.651C219.717 107.929 220.749 107.048 221.51 106.006C222.291 104.964 222.712 103.952 222.772 102.971L225.146 105.645C225.006 106.487 224.626 107.418 224.004 108.44C223.383 109.462 222.552 110.444 221.51 111.385C220.488 112.307 219.266 113.078 217.844 113.699C216.441 114.301 214.858 114.601 213.095 114.601C210.891 114.601 208.958 114.17 207.295 113.309C205.652 112.447 204.37 111.295 203.448 109.853C202.547 108.39 202.096 106.757 202.096 104.954C202.096 103.211 202.437 101.678 203.118 100.356C203.799 99.0137 204.781 97.9017 206.063 97.0202C207.345 96.1186 208.888 95.4374 210.691 94.9766C212.494 94.5158 214.508 94.2854 216.732 94.2854H223.193ZM242.096 88.4251V114H236.536V81.4829H241.796L242.096 88.4251ZM240.774 96.5093L238.46 96.4191C238.48 94.1952 238.81 92.1416 239.452 90.2583C240.093 88.3549 240.994 86.702 242.156 85.2996C243.318 83.8971 244.701 82.8152 246.304 82.0539C247.926 81.2725 249.72 80.8818 251.683 80.8818C253.286 80.8818 254.728 81.1022 256.011 81.543C257.293 81.9637 258.385 82.6449 259.286 83.5866C260.208 84.5282 260.909 85.7504 261.39 87.253C261.871 88.7356 262.111 90.5488 262.111 92.6926V114H256.522V92.6325C256.522 90.9295 256.271 89.5671 255.77 88.5453C255.269 87.5034 254.538 86.7521 253.576 86.2913C252.615 85.8105 251.433 85.5701 250.03 85.5701C248.648 85.5701 247.386 85.8606 246.244 86.4416C245.122 87.0226 244.15 87.824 243.328 88.8458C242.527 89.8676 241.896 91.0397 241.435 92.362C240.994 93.6643 240.774 95.0467 240.774 96.5093ZM289.49 105.375C289.49 104.573 289.309 103.832 288.949 103.151C288.608 102.45 287.897 101.819 286.815 101.258C285.753 100.677 284.15 100.176 282.006 99.755C280.203 99.3743 278.57 98.9235 277.108 98.4026C275.665 97.8817 274.433 97.2506 273.411 96.5093C272.41 95.768 271.638 94.8964 271.097 93.8947C270.556 92.8929 270.286 91.7209 270.286 90.3785C270.286 89.0962 270.566 87.8841 271.127 86.7421C271.708 85.6001 272.52 84.5883 273.562 83.7068C274.623 82.8252 275.896 82.134 277.378 81.6331C278.861 81.1323 280.514 80.8818 282.337 80.8818C284.942 80.8818 287.165 81.3426 289.009 82.2642C290.852 83.1859 292.264 84.418 293.246 85.9607C294.228 87.4834 294.719 89.1764 294.719 91.0397H289.159C289.159 90.1381 288.888 89.2665 288.348 88.4251C287.827 87.5636 287.055 86.8523 286.033 86.2913C285.032 85.7303 283.8 85.4498 282.337 85.4498C280.794 85.4498 279.542 85.6903 278.58 86.1711C277.639 86.6319 276.947 87.223 276.507 87.9442C276.086 88.6655 275.876 89.4268 275.876 90.2282C275.876 90.8293 275.976 91.3702 276.176 91.8511C276.397 92.3119 276.777 92.7427 277.318 93.1434C277.859 93.524 278.62 93.8847 279.602 94.2253C280.584 94.5659 281.836 94.9065 283.359 95.2471C286.023 95.8481 288.217 96.5694 289.94 97.4109C291.663 98.2523 292.946 99.2841 293.787 100.506C294.629 101.728 295.049 103.211 295.049 104.954C295.049 106.377 294.749 107.679 294.148 108.861C293.567 110.043 292.715 111.065 291.593 111.926C290.491 112.768 289.169 113.429 287.626 113.91C286.104 114.371 284.391 114.601 282.487 114.601C279.622 114.601 277.198 114.09 275.214 113.068C273.231 112.047 271.728 110.724 270.707 109.101C269.685 107.479 269.174 105.766 269.174 103.962H274.764C274.844 105.485 275.285 106.697 276.086 107.599C276.887 108.48 277.869 109.111 279.031 109.492C280.193 109.853 281.345 110.033 282.487 110.033C284.01 110.033 285.282 109.833 286.304 109.432C287.346 109.031 288.137 108.48 288.678 107.779C289.219 107.078 289.49 106.276 289.49 105.375ZM308.393 81.4829V114H302.803V81.4829H308.393ZM302.382 72.8577C302.382 71.9561 302.653 71.1948 303.194 70.5737C303.755 69.9526 304.576 69.6421 305.658 69.6421C306.72 69.6421 307.531 69.9526 308.092 70.5737C308.673 71.1948 308.964 71.9561 308.964 72.8577C308.964 73.7192 308.673 74.4605 308.092 75.0816C307.531 75.6827 306.72 75.9832 305.658 75.9832C304.576 75.9832 303.755 75.6827 303.194 75.0816C302.653 74.4605 302.382 73.7192 302.382 72.8577ZM338.385 81.4829H343.434V113.309C343.434 116.174 342.853 118.618 341.691 120.642C340.529 122.665 338.906 124.198 336.823 125.24C334.759 126.302 332.375 126.833 329.67 126.833C328.548 126.833 327.226 126.652 325.703 126.292C324.2 125.951 322.718 125.36 321.255 124.518C319.813 123.697 318.601 122.585 317.619 121.183L320.534 117.877C321.896 119.52 323.319 120.662 324.802 121.303C326.304 121.944 327.787 122.265 329.249 122.265C331.012 122.265 332.535 121.934 333.817 121.273C335.1 120.612 336.091 119.63 336.793 118.328C337.514 117.045 337.875 115.463 337.875 113.579V88.6354L338.385 81.4829ZM315.996 98.1021V97.471C315.996 94.9866 316.287 92.7326 316.868 90.7091C317.469 88.6655 318.32 86.9124 319.422 85.4498C320.544 83.9873 321.896 82.8653 323.479 82.0839C325.062 81.2825 326.845 80.8818 328.829 80.8818C330.872 80.8818 332.655 81.2425 334.178 81.9637C335.721 82.6649 337.023 83.6968 338.085 85.0592C339.167 86.4015 340.018 88.0244 340.639 89.9277C341.26 91.8311 341.691 93.9848 341.932 96.3891V99.1539C341.711 101.538 341.281 103.682 340.639 105.585C340.018 107.489 339.167 109.111 338.085 110.454C337.023 111.796 335.721 112.828 334.178 113.549C332.635 114.25 330.832 114.601 328.769 114.601C326.825 114.601 325.062 114.19 323.479 113.369C321.916 112.547 320.574 111.395 319.452 109.913C318.33 108.43 317.469 106.687 316.868 104.684C316.287 102.66 315.996 100.466 315.996 98.1021ZM321.556 97.471V98.1021C321.556 99.7249 321.716 101.248 322.037 102.67C322.377 104.093 322.888 105.345 323.569 106.427C324.271 107.509 325.162 108.36 326.244 108.981C327.326 109.582 328.618 109.883 330.121 109.883C331.964 109.883 333.487 109.492 334.689 108.711C335.891 107.929 336.843 106.898 337.544 105.615C338.265 104.333 338.826 102.941 339.227 101.438V94.1952C339.007 93.0933 338.666 92.0314 338.205 91.0096C337.764 89.9678 337.183 89.0462 336.462 88.2448C335.761 87.4233 334.889 86.7722 333.847 86.2913C332.806 85.8105 331.583 85.5701 330.181 85.5701C328.658 85.5701 327.346 85.8906 326.244 86.5317C325.162 87.1528 324.271 88.0143 323.569 89.1163C322.888 90.1982 322.377 91.4604 322.037 92.9029C321.716 94.3254 321.556 95.8481 321.556 97.471ZM357.439 67.8389V114H351.879V67.8389H357.439ZM356.117 96.5093L353.803 96.4191C353.823 94.1952 354.153 92.1416 354.794 90.2583C355.435 88.3549 356.337 86.702 357.499 85.2996C358.661 83.8971 360.043 82.8152 361.646 82.0539C363.269 81.2725 365.062 80.8818 367.026 80.8818C368.629 80.8818 370.071 81.1022 371.353 81.543C372.636 81.9637 373.728 82.6449 374.629 83.5866C375.551 84.5282 376.252 85.7504 376.733 87.253C377.214 88.7356 377.454 90.5488 377.454 92.6926V114H371.864V92.6325C371.864 90.9295 371.614 89.5671 371.113 88.5453C370.612 87.5034 369.881 86.7521 368.919 86.2913C367.957 85.8105 366.775 85.5701 365.373 85.5701C363.99 85.5701 362.728 85.8606 361.586 86.4416C360.464 87.0226 359.493 87.824 358.671 88.8458C357.87 89.8676 357.239 91.0397 356.778 92.362C356.337 93.6643 356.117 95.0467 356.117 96.5093ZM399.393 81.4829V85.7504H381.812V81.4829H399.393ZM387.762 73.579H393.322V105.946C393.322 107.048 393.492 107.879 393.833 108.44C394.173 109.001 394.614 109.372 395.155 109.552C395.696 109.733 396.277 109.823 396.898 109.823C397.359 109.823 397.84 109.783 398.341 109.702C398.862 109.602 399.252 109.522 399.513 109.462L399.543 114C399.102 114.14 398.521 114.27 397.8 114.391C397.099 114.531 396.247 114.601 395.245 114.601C393.883 114.601 392.631 114.331 391.489 113.79C390.347 113.249 389.435 112.347 388.754 111.085C388.093 109.803 387.762 108.08 387.762 105.916V73.579Z" fill="white"/>
</svg>
